<?xml version="1.0" standalone="no"?>
<!DOCTYPE svg PUBLIC "-//W3C//DTD SVG 20010904//EN"
 "http://www.w3.org/TR/2001/REC-SVG-20010904/DTD/svg10.dtd">
<svg version="1.0" xmlns="http://www.w3.org/2000/svg"
 width="512.000000pt" height="512.000000pt" viewBox="0 0 512.000000 512.000000"
 preserveAspectRatio="xMidYMid meet">

<g transform="translate(0.000000,512.000000) scale(0.100000,-0.100000)"
fill="#000000" stroke="none">
<path d="M0 2560 l0 -2560 2560 0 2560 0 0 2560 0 2560 -2560 0 -2560 0 0
-2560z m4800 0 l0 -2240 -2240 0 -2240 0 0 2240 0 2240 2240 0 2240 0 0 -2240z"/>
<path d="M1200 4140 c-70 -15 -164 -66 -205 -111 -21 -23 -49 -67 -64 -98 -23
-49 -26 -69 -26 -156 0 -89 3 -106 28 -156 34 -70 109 -142 185 -177 52 -25
68 -27 177 -27 114 0 123 2 186 31 89 43 142 93 181 172 29 59 33 76 33 152 0
171 -82 293 -235 351 -62 23 -193 33 -260 19z"/>
<path d="M3304 3159 c-200 -19 -378 -119 -494 -278 l-45 -62 -3 151 -3 150
-354 0 -355 0 0 -1075 0 -1075 355 0 354 0 3 668 3 667 33 68 c41 83 112 156
189 194 53 25 68 28 163 28 86 0 113 -4 151 -21 88 -41 148 -121 187 -247 14
-45 16 -141 19 -704 l4 -653 354 0 355 0 0 683 c0 749 -3 793 -59 968 -46 142
-100 230 -200 329 -68 68 -104 95 -171 128 -141 69 -312 98 -486 81z"/>
<path d="M940 2045 l0 -1075 355 0 355 0 0 1075 0 1075 -355 0 -355 0 0 -1075z"/>
</g>
</svg>
